<?xml version="1.0" encoding="iso-8859-1"?>
<!-- Generator: Adobe Illustrator 17.1.0, SVG Export Plug-In . SVG Version: 6.00 Build 0)  -->
<!DOCTYPE svg PUBLIC "-//W3C//DTD SVG 1.1//EN" "http://www.w3.org/Graphics/SVG/1.1/DTD/svg11.dtd">
<svg version="1.1" id="Capa_1" fill="white" xmlns="http://www.w3.org/2000/svg" xmlns:xlink="http://www.w3.org/1999/xlink" x="0px" y="0px"
	 viewBox="0 0 378.604 378.604" style="enable-background:new 0 0 378.604 378.604;" xml:space="preserve">
<path d="M287.054,97.751c0-53.9-43.852-97.751-97.752-97.751S91.551,43.851,91.551,97.751c0,45.67,31.483,84.12,73.885,94.799
	v162.188c0,13.16,10.707,23.866,23.867,23.866c9.859,0,18.34-6.009,21.975-14.557h14.35h6.108h10.653c5.514,0,10-4.378,10-9.76
	c0-5.382-4.486-9.761-10-9.761h-10.653v-8.38h10.653c5.514,0,10-4.378,10-9.761s-4.486-9.761-10-9.761h-10.653v-8.38h10.653
	c5.514,0,10-4.378,10-9.761s-4.486-9.761-10-9.761h-10.653h-6.108h-12.459v-96.173C255.57,181.872,287.054,143.421,287.054,97.751z
	 M189.302,152.772c-30.387,0-55.021-24.634-55.021-55.021s24.634-55.021,55.021-55.021s55.021,24.634,55.021,55.021
	S219.689,152.772,189.302,152.772z"/>
<g>
</g>
<g>
</g>
<g>
</g>
<g>
</g>
<g>
</g>
<g>
</g>
<g>
</g>
<g>
</g>
<g>
</g>
<g>
</g>
<g>
</g>
<g>
</g>
<g>
</g>
<g>
</g>
<g>
</g>
</svg>
